<svg id="Layer_1" data-name="Layer 1" xmlns="http://www.w3.org/2000/svg" xmlns:xlink="http://www.w3.org/1999/xlink" viewBox="0 0 500 194.81"><defs><style>.cls-1{fill:url(#linear-gradient);}.cls-2{fill:url(#linear-gradient-2);}.cls-3{fill:url(#linear-gradient-3);}</style><linearGradient id="linear-gradient" x1="150" y1="411.05" x2="362.42" y2="411.05" gradientUnits="userSpaceOnUse"><stop offset="0" stop-color="#e84a9a"/><stop offset="1" stop-color="#7f51a1"/></linearGradient><linearGradient id="linear-gradient-2" x1="322.29" y1="400" x2="650" y2="400" xlink:href="#linear-gradient"/><linearGradient id="linear-gradient-3" x1="465.4" y1="451.09" x2="519.54" y2="451.09" xlink:href="#linear-gradient"/></defs><path class="cls-1" d="M362.42,341.9A160.78,160.78,0,0,0,330.85,383,93.33,93.33,0,0,0,205.26,497.4H152.83A144.16,144.16,0,0,1,362.42,341.9Z" transform="translate(-150 -302.6)"/><path class="cls-2" d="M650,466.45a163.54,163.54,0,0,1-3,30.95H587.69a106.15,106.15,0,1,0-204.55-56.57,108.14,108.14,0,0,0-3.1,25.62,104.87,104.87,0,0,0,3.8,28.12v.07c.2.9.48,1.86.76,2.76H325.26A163.83,163.83,0,0,1,553.08,316.9a.67.67,0,0,1,.35.2A163.65,163.65,0,0,1,650,466.45Z" transform="translate(-150 -302.6)"/><path class="cls-3" d="M515.51,444.1l-38-21.94a8.08,8.08,0,0,0-12.12,7V473a8.08,8.08,0,0,0,12.12,7l38-21.94A8.07,8.07,0,0,0,515.51,444.1Z" transform="translate(-150 -302.6)"/></svg>