<?xml version="1.0" standalone="no"?>
<!DOCTYPE svg PUBLIC "-//W3C//DTD SVG 20010904//EN"
 "http://www.w3.org/TR/2001/REC-SVG-20010904/DTD/svg10.dtd">
<svg version="1.0" xmlns="http://www.w3.org/2000/svg"
 width="2000.000000pt" height="2000.000000pt" viewBox="0 0 2000.000000 2000.000000"
 preserveAspectRatio="xMidYMid meet">
<metadata>
Created by potrace 1.14, written by Peter Selinger 2001-2017
</metadata>
<g transform="translate(0.000000,2000.000000) scale(0.100000,-0.100000)"
fill="#000000" stroke="none">
<path d="M13107 13884 c-2 -3 -42 -7 -88 -9 -88 -4 -170 -12 -254 -22 -27 -3
-67 -7 -87 -7 -21 -1 -38 -3 -38 -6 0 -3 -12 -5 -27 -6 -16 0 -50 -4 -78 -8
-27 -4 -61 -9 -75 -11 -33 -5 -89 -14 -120 -20 -36 -8 -59 -12 -110 -20 -44
-7 -56 -10 -102 -20 -13 -3 -36 -8 -53 -11 -16 -3 -48 -9 -70 -15 -71 -17 -80
-19 -102 -23 -13 -3 -26 -7 -31 -10 -5 -3 -23 -8 -41 -11 -43 -7 -114 -27
-256 -70 -66 -20 -124 -37 -130 -38 -5 -2 -14 -5 -20 -9 -8 -4 -88 -31 -165
-53 -3 -1 -18 -7 -35 -14 -16 -6 -52 -20 -80 -31 -160 -60 -252 -98 -390 -159
-57 -26 -402 -197 -425 -211 -8 -5 -76 -44 -150 -86 -74 -42 -172 -101 -218
-130 -45 -30 -87 -54 -92 -54 -4 0 -10 -3 -12 -7 -1 -5 -50 -39 -108 -78 -96
-65 -122 -83 -154 -110 -7 -5 -19 -14 -28 -20 -69 -42 -374 -291 -538 -440
-75 -67 -392 -387 -445 -448 -27 -32 -61 -70 -75 -85 -14 -15 -43 -49 -65 -76
-22 -27 -49 -59 -60 -72 -105 -118 -455 -606 -455 -633 0 -5 -4 -11 -8 -13 -9
-3 -106 -164 -200 -330 -81 -143 -281 -550 -286 -583 -1 -5 -5 -15 -8 -21 -9
-14 -105 -255 -110 -274 -2 -8 -5 -17 -8 -20 -3 -3 -11 -23 -18 -45 -8 -22
-24 -69 -37 -105 -24 -70 -83 -257 -112 -355 -18 -65 -20 -70 -26 -100 -3 -11
-12 -47 -21 -80 -18 -71 -82 -365 -90 -415 -3 -19 -7 -44 -10 -55 -2 -11 -7
-40 -10 -65 -3 -25 -8 -56 -11 -70 -7 -34 -17 -100 -20 -130 -1 -14 -6 -54 -9
-90 -4 -36 -9 -78 -12 -95 -2 -16 -6 -59 -9 -95 -2 -36 -6 -90 -10 -120 -14
-142 -20 -583 -10 -750 17 -274 23 -353 40 -490 3 -19 7 -53 10 -75 2 -22 7
-49 9 -60 4 -21 16 -103 21 -145 2 -14 6 -41 10 -60 3 -19 10 -53 14 -75 l7
-40 1186 -3 1187 -2 -25 90 c-13 49 -26 100 -28 112 -12 56 -15 69 -21 78 -3
5 -8 24 -10 42 -3 18 -9 56 -15 83 -11 51 -17 86 -26 140 -2 17 -6 41 -9 55
-2 14 -7 45 -10 70 -4 25 -8 56 -10 70 -4 29 -14 140 -21 250 -6 88 -5 408 0
494 4 51 13 166 21 246 1 14 5 43 8 65 4 22 9 58 12 80 3 23 8 52 11 65 2 14
6 39 9 55 2 17 6 41 9 55 4 14 8 36 11 50 7 36 12 58 25 115 6 28 14 59 16 70
2 11 13 52 25 90 11 39 27 95 36 125 8 30 18 60 21 65 4 6 7 15 8 20 3 17 34
108 48 140 18 42 61 149 61 155 6 35 194 405 266 524 30 48 60 100 68 115 8
14 17 28 20 31 3 3 28 39 56 80 232 349 595 731 945 993 41 31 80 61 87 67 7
5 15 10 18 10 3 0 15 8 26 18 10 11 32 25 47 33 15 8 36 22 46 32 11 9 25 17
32 17 7 0 14 3 16 8 4 10 85 62 97 62 5 0 16 6 23 14 25 24 333 185 463 241
22 9 49 21 60 26 126 55 493 178 605 203 90 20 259 56 285 61 16 2 41 7 55 10
13 2 41 7 62 10 21 3 55 7 77 10 21 3 58 8 82 10 24 2 69 7 99 11 135 14 467
19 620 9 160 -11 295 -23 320 -30 8 -2 38 -7 66 -10 28 -3 60 -8 72 -10 12 -3
30 -7 40 -9 9 -2 37 -7 62 -11 53 -9 270 -59 318 -74 18 -5 34 -10 37 -11 49
-9 361 -115 367 -124 4 -6 8 -8 8 -4 0 4 24 -3 53 -16 53 -23 88 -38 97 -41
42 -14 323 -153 395 -195 22 -13 60 -35 85 -49 25 -13 47 -27 50 -30 3 -3 14
-11 25 -17 50 -27 70 -39 75 -45 3 -3 44 -31 93 -64 48 -32 92 -64 98 -72 6
-7 17 -13 24 -13 8 0 15 -3 17 -7 2 -5 37 -35 78 -68 124 -99 110 -87 221
-185 113 -100 307 -301 410 -425 23 -27 52 -62 65 -77 13 -16 22 -28 20 -28
-3 0 8 -14 24 -32 17 -18 42 -51 57 -75 15 -24 31 -43 35 -43 4 0 8 -6 8 -14
0 -8 3 -16 8 -18 10 -4 92 -124 92 -136 0 -5 9 -17 20 -27 11 -10 20 -21 20
-25 0 -4 24 -47 54 -96 60 -100 156 -284 203 -389 17 -38 41 -92 54 -120 56
-128 186 -514 203 -608 2 -12 9 -42 16 -67 7 -25 14 -54 15 -65 2 -11 5 -29 8
-40 2 -11 7 -36 11 -55 3 -19 8 -44 10 -55 19 -108 35 -209 41 -270 2 -27 7
-72 10 -100 16 -159 22 -484 10 -640 -9 -135 -14 -190 -21 -235 -3 -25 -8 -58
-9 -75 -4 -28 -10 -72 -20 -135 -10 -67 -30 -166 -48 -242 -8 -32 -12 -58 -9
-58 2 0 -1 -7 -8 -15 -7 -8 -10 -15 -7 -15 3 0 1 -15 -5 -32 -5 -18 -11 -40
-12 -48 -1 -9 -5 -21 -10 -28 -4 -6 -5 -12 -2 -12 3 0 -1 -19 -9 -41 -8 -23
-15 -43 -15 -45 0 -8 2370 -4 2371 4 0 4 2 14 4 22 1 8 6 32 9 54 3 21 8 41
10 45 2 3 6 29 10 56 11 90 16 130 22 155 8 38 17 121 18 162 1 21 3 38 6 38
5 0 12 82 14 167 1 29 3 53 6 53 14 0 20 741 7 910 -15 191 -21 246 -32 335
-2 17 -7 53 -10 80 -3 28 -9 64 -12 80 -2 17 -7 44 -9 60 -7 61 -12 92 -24
155 -7 36 -14 75 -15 87 -2 11 -6 31 -10 42 -3 12 -8 35 -10 52 -3 17 -7 40
-11 51 -3 11 -8 30 -10 41 -7 42 -24 119 -36 161 -16 56 -16 58 -22 84 -3 13
-8 32 -11 42 -3 10 -8 28 -10 39 -3 12 -7 30 -9 41 -3 11 -8 25 -11 30 -4 6
-8 23 -11 38 -2 15 -8 36 -13 47 -7 16 -92 276 -97 295 -1 5 -5 16 -31 80 -8
19 -16 42 -18 50 -6 23 -99 250 -152 370 -32 73 -185 378 -220 440 -20 36 -46
84 -58 108 -13 24 -30 51 -38 60 -9 9 -15 19 -14 22 1 5 -15 32 -70 117 -18
29 -33 57 -33 63 0 5 -3 10 -8 10 -4 0 -18 20 -31 45 -13 25 -28 45 -32 45 -5
0 -9 4 -9 9 0 6 -19 38 -43 73 -24 35 -59 85 -78 113 -19 27 -40 56 -47 63 -6
7 -26 35 -44 60 -18 26 -37 52 -43 59 -5 7 -14 18 -20 25 -39 51 -130 164
-135 168 -3 3 -25 30 -50 60 -25 30 -54 64 -65 76 -11 12 -47 52 -80 90 -79
90 -338 349 -445 446 -100 90 -95 86 -231 200 -52 43 -102 83 -180 143 -46 35
-88 68 -94 72 -5 5 -35 26 -65 47 -30 22 -56 43 -58 48 -2 4 -8 8 -12 8 -5 0
-48 27 -96 61 -48 34 -95 64 -103 67 -9 3 -25 14 -35 24 -11 10 -32 24 -48 30
-15 7 -28 16 -28 20 0 5 -7 8 -15 8 -8 0 -15 5 -15 10 0 6 -5 10 -11 10 -7 0
-40 18 -75 40 -35 22 -66 40 -70 40 -3 0 -18 8 -32 19 -15 10 -61 36 -102 58
-41 22 -86 46 -100 53 -107 56 -331 163 -450 215 -36 15 -83 36 -105 45 -139
61 -622 227 -745 255 -8 2 -59 15 -114 29 -54 14 -108 28 -120 30 -11 3 -64
14 -116 26 -52 12 -106 24 -120 26 -14 2 -36 7 -50 9 -40 8 -72 14 -110 19
-19 3 -45 7 -56 10 -25 5 -68 12 -139 21 -27 4 -61 9 -75 11 -14 2 -46 6 -72
9 -27 3 -72 8 -100 11 -29 3 -75 8 -103 10 -27 2 -79 6 -115 10 -77 7 -787 14
-793 8z"/>
<path d="M5557 13004 c-1 -1 -60 -5 -130 -9 -71 -3 -136 -8 -145 -10 -9 -1
-51 -6 -92 -9 -41 -4 -86 -9 -100 -10 -95 -13 -139 -19 -250 -37 -160 -25
-182 -29 -189 -33 -3 -2 -24 -7 -46 -10 -22 -4 -58 -11 -80 -17 -22 -6 -49
-13 -60 -14 -22 -4 -21 -4 -160 -40 -123 -31 -189 -51 -282 -82 -40 -13 -81
-26 -90 -28 -14 -3 -218 -77 -283 -102 -8 -4 -18 -5 -22 -5 -5 1 -8 -2 -8 -8
0 -5 -6 -10 -14 -10 -7 0 -35 -10 -62 -22 -27 -12 -51 -23 -54 -23 -3 -1 -26
-11 -53 -23 -26 -12 -51 -22 -55 -23 -26 -6 -459 -233 -522 -273 -51 -34 -178
-109 -200 -121 -11 -5 -20 -13 -20 -17 0 -5 -5 -8 -10 -8 -6 0 -35 -18 -65
-40 -30 -22 -59 -40 -65 -40 -6 0 -13 -7 -16 -15 -4 -8 -10 -15 -16 -15 -11 0
-81 -51 -86 -62 -2 -5 -8 -8 -13 -8 -12 0 -320 -243 -375 -295 -6 -6 -46 -42
-89 -81 -136 -121 -408 -399 -488 -497 -18 -22 -37 -44 -42 -51 -15 -16 -109
-129 -118 -141 -45 -61 -109 -144 -121 -157 -9 -10 -16 -22 -16 -27 0 -5 -3
-11 -7 -13 -9 -4 -14 -10 -108 -149 -38 -57 -74 -107 -78 -110 -5 -3 -8 -9 -8
-13 1 -6 -56 -99 -90 -148 -10 -15 -19 -29 -19 -31 0 -3 -33 -62 -73 -133 -81
-144 -202 -385 -199 -396 1 -5 -3 -8 -10 -8 -6 0 -9 -3 -6 -6 4 -3 -10 -40
-29 -82 -39 -86 -55 -122 -59 -137 -1 -5 -15 -39 -29 -75 -15 -36 -33 -83 -40
-105 -8 -22 -30 -85 -50 -140 -20 -55 -38 -109 -40 -120 -2 -11 -17 -65 -34
-120 -17 -55 -33 -109 -35 -120 -2 -11 -13 -54 -24 -95 -20 -76 -52 -219 -58
-255 -1 -11 -10 -54 -18 -95 -8 -42 -18 -96 -21 -120 -7 -53 -13 -85 -15 -85
-1 0 -3 -16 -5 -35 -2 -19 -6 -57 -10 -84 -13 -101 -26 -226 -30 -303 -1 -34
-5 -65 -8 -70 -7 -12 -1 -685 8 -788 4 -49 8 -111 9 -137 0 -27 3 -48 7 -48 3
0 6 -17 8 -37 6 -87 16 -159 46 -328 9 -49 18 -103 20 -119 3 -16 6 -30 8 -32
2 -2 474 -3 1049 -2 l1045 3 -27 93 c-16 50 -26 92 -24 92 2 0 -1 11 -6 25 -5
14 -12 36 -14 48 -10 48 -15 69 -20 85 -3 9 -8 34 -12 56 -3 21 -8 48 -10 60
-3 11 -7 32 -10 46 -3 14 -7 39 -9 55 -2 17 -6 44 -9 60 -15 87 -33 317 -38
500 -1 45 19 420 22 420 1 0 3 14 5 30 1 17 6 50 9 75 4 25 9 59 11 75 3 17 6
39 8 50 12 56 21 111 19 119 -2 4 3 14 9 22 6 8 9 14 6 14 -3 0 3 32 13 70 10
39 18 71 18 73 0 1 5 20 11 42 6 22 10 42 10 45 0 3 10 32 21 65 11 33 21 62
22 65 4 23 64 190 93 261 58 142 132 295 201 417 30 52 54 96 54 99 0 2 5 9
10 16 6 7 38 55 71 107 34 52 94 138 133 190 88 117 83 112 128 160 20 22 47
54 60 71 26 34 245 257 299 304 19 17 61 53 94 80 33 28 62 53 65 56 3 3 46
35 95 72 50 37 95 71 102 77 23 19 178 117 187 118 5 0 12 4 15 9 6 9 146 93
155 93 3 0 28 14 56 30 28 17 57 30 65 30 8 0 15 5 15 10 0 6 4 10 9 10 5 0
47 17 93 38 74 35 113 52 128 57 3 1 18 7 33 13 16 7 31 12 34 12 3 0 19 7 36
14 62 29 303 105 417 131 50 12 200 45 225 49 60 12 161 28 200 32 22 3 56 7
75 9 216 29 679 23 890 -10 19 -3 53 -8 75 -11 22 -3 50 -7 63 -10 65 -12 79
-15 104 -20 15 -3 30 -5 33 -5 2 0 19 -5 37 -10 18 -5 44 -11 58 -14 45 -9 64
-13 160 -40 52 -15 102 -30 110 -34 9 -5 31 -12 50 -16 19 -4 44 -12 55 -18
11 -6 25 -12 30 -13 6 -1 52 -18 104 -38 108 -42 101 -44 151 49 18 33 44 77
57 97 12 21 23 40 23 43 0 4 14 26 30 50 17 24 30 46 30 49 0 7 83 132 182
276 28 41 61 89 72 105 18 25 47 66 89 120 33 44 133 171 137 175 3 3 21 25
40 50 19 24 42 52 50 60 8 9 30 34 48 55 67 81 200 222 320 341 67 67 122 126
122 131 0 8 -279 155 -300 158 -3 1 -25 10 -50 22 -25 11 -85 37 -135 58 -49
21 -103 43 -120 50 -38 17 -287 107 -300 109 -5 1 -16 5 -22 9 -7 5 -17 5 -23
2 -5 -3 -10 -1 -10 4 0 6 -3 10 -7 9 -5 -1 -48 10 -98 25 -49 15 -106 32 -125
37 -19 5 -59 16 -88 24 -29 8 -54 15 -57 16 -3 0 -10 2 -17 4 -20 5 -110 25
-138 30 -14 2 -59 12 -100 21 -41 9 -86 18 -100 20 -14 2 -68 10 -120 18 -52
9 -115 18 -140 21 -25 3 -56 8 -70 11 -14 3 -56 7 -95 10 -38 3 -86 7 -105 10
-105 12 -703 28 -713 19z"/>
<path d="M12910 9149 c-86 -14 -140 -38 -191 -89 -93 -92 -99 -122 -100 -482
0 -165 2 -303 5 -306 3 -3 1 -11 -5 -18 -7 -9 -7 -19 0 -32 6 -11 8 -22 5 -25
-7 -7 -6 -878 0 -885 3 -3 1 -11 -5 -18 -7 -9 -7 -19 0 -32 6 -11 8 -22 5 -25
-11 -10 -5 -195 7 -239 32 -119 108 -196 234 -236 59 -19 151 -7 222 28 66 32
183 99 193 110 3 3 23 14 45 26 22 11 127 71 233 132 107 62 197 112 202 112
5 0 10 4 12 8 2 5 28 22 58 38 30 17 71 39 90 50 19 10 37 21 40 24 3 3 16 11
29 18 13 8 40 23 60 35 20 11 56 31 81 45 25 13 50 27 55 32 6 4 30 19 55 32
25 14 86 49 135 78 120 71 162 94 215 122 81 42 160 132 176 201 1 4 2 8 4 10
6 7 11 49 11 97 1 105 -55 202 -155 268 -35 23 -69 42 -75 42 -6 0 -11 4 -11
8 0 4 -15 15 -32 23 -42 20 -102 53 -108 59 -3 3 -16 11 -30 18 -14 7 -38 20
-55 31 -78 48 -121 72 -137 78 -10 3 -18 8 -18 12 0 4 -16 13 -35 21 -19 8
-35 17 -35 22 0 4 -4 8 -9 8 -6 0 -59 28 -119 63 -60 35 -115 67 -123 70 -8 4
-32 18 -54 32 -22 14 -49 30 -60 35 -11 6 -36 20 -55 32 -32 19 -95 55 -145
82 -11 6 -22 13 -25 16 -10 10 -153 90 -161 90 -5 0 -9 5 -9 11 0 5 -4 8 -9 5
-5 -3 -14 1 -21 9 -7 8 -19 15 -26 15 -8 0 -14 4 -14 9 0 5 -8 11 -17 14 -17
6 -137 71 -158 86 -11 8 -76 28 -110 33 -11 2 -40 1 -65 -3z"/>
</g>
</svg>
